<svg width="80" height="64" viewBox="-8 0 80 64" fill="none" xmlns="http://www.w3.org/2000/svg">
<g opacity="0.9">
<path d="M47.8 38.4C47.6 37.3 47.2 36.3 46.7 35.3L48.8 33C49.2 32.6 49.2 32 48.9 31.6L46.9 28.2C46.6 27.8 46 27.7 45.5 27.9L42.8 29C41.9 28.3 40.9 27.8 39.9 27.4L39.5 24.6C39.4 24.1 39 23.7 38.5 23.7H34.5C34 23.7 33.6 24 33.5 24.5L33.1 27.3C32.1 27.7 31.1 28.2 30.2 28.9L27.5 27.8C27 27.6 26.4 27.8 26.2 28.2L24.2 31.6C23.9 32 24 32.6 24.4 33L26.5 35.2C26 36.2 25.6 37.3 25.4 38.4L22.5 38.8C22 38.9 21.7 39.3 21.7 39.8V43.8C21.7 44.3 22 44.7 22.5 44.8L25.3 45.2C25.7 46.2 26.2 47.2 26.9 48.1L24.7 50.4C24.3 50.8 24.3 51.4 24.6 51.8L26.6 55.2C26.9 55.6 27.5 55.7 28 55.5L30.7 54.4C31.6 55.1 32.6 55.6 33.6 56L34 58.8C34.1 59.3 34.5 59.7 35 59.7H39C39.5 59.7 39.9 59.4 40 58.9L40.4 56.1C41.4 55.7 42.4 55.2 43.3 54.5L46 55.6C46.5 55.8 47.1 55.6 47.3 55.2L49.3 51.8C49.6 51.4 49.5 50.8 49.1 50.4L47 48.2C47.5 47.2 47.9 46.1 48.1 45L51 44.6C51.5 44.5 51.8 44.1 51.8 43.6V39.6C51.8 39.1 51.5 38.7 51 38.6L47.8 38.4ZM36.5 48.7C32.9 48.7 30 45.8 30 42.2C30 38.6 32.9 35.7 36.5 35.7C40.1 35.7 43 38.6 43 42.2C43 45.8 40.1 48.7 36.5 48.7Z" fill="url(#paint0_linear)"/>
<path d="M18.8 26.4C18.6 25.3 18.2 24.3 17.7 23.3L19.8 21C20.2 20.6 20.2 20 19.9 19.6L17.9 16.2C17.6 15.8 17 15.7 16.5 15.9L13.8 17C12.9 16.3 11.9 15.8 10.9 15.4L10.5 12.6C10.4 12.1 10 11.7 9.5 11.7H5.5C5 11.7 4.6 12 4.5 12.5L4.1 15.3C3.1 15.7 2.1 16.2 1.2 16.9L-1.5 15.8C-2 15.6 -2.6 15.8 -2.8 16.2L-4.8 19.6C-5.1 20 -5 20.6 -4.6 21L-2.5 23.2C-3 24.2 -3.4 25.3 -3.6 26.4L-6.5 26.8C-7 26.9 -7.3 27.3 -7.3 27.8V31.8C-7.3 32.3 -7 32.7 -6.5 32.8L-3.7 33.2C-3.3 34.2 -2.8 35.2 -2.1 36.1L-4.3 38.4C-4.7 38.8 -4.7 39.4 -4.4 39.8L-2.4 43.2C-2.1 43.6 -1.5 43.7 -1 43.5L1.7 42.4C2.6 43.1 3.6 43.6 4.6 44L5 46.8C5.1 47.3 5.5 47.7 6 47.7H10C10.5 47.7 10.9 47.4 11 46.9L11.4 44.1C12.4 43.7 13.4 43.2 14.3 42.5L17 43.6C17.5 43.8 18.1 43.6 18.3 43.2L20.3 39.8C20.6 39.4 20.5 38.8 20.1 38.4L18 36.2C18.5 35.2 18.9 34.1 19.1 33L22 32.6C22.5 32.5 22.8 32.1 22.8 31.6V27.6C22.8 27.1 22.5 26.7 22 26.6L18.8 26.4ZM7.5 36.7C3.9 36.7 1 33.8 1 30.2C1 26.6 3.9 23.7 7.5 23.7C11.1 23.7 14 26.6 14 30.2C14 33.8 11.1 36.7 7.5 36.7Z" fill="url(#paint1_linear)"/>
<path d="M56.8 18.4C56.6 17.3 56.2 16.3 55.7 15.3L57.8 13C58.2 12.6 58.2 12 57.9 11.6L55.9 8.2C55.6 7.8 55 7.7 54.5 7.9L51.8 9C50.9 8.3 49.9 7.8 48.9 7.4L48.5 4.6C48.4 4.1 48 3.7 47.5 3.7H43.5C43 3.7 42.6 4 42.5 4.5L42.1 7.3C41.1 7.7 40.1 8.2 39.2 8.9L36.5 7.8C36 7.6 35.4 7.8 35.2 8.2L33.2 11.6C32.9 12 33 12.6 33.4 13L35.5 15.2C35 16.2 34.6 17.3 34.4 18.4L31.5 18.8C31 18.9 30.7 19.3 30.7 19.8V23.8C30.7 24.3 31 24.7 31.5 24.8L34.3 25.2C34.7 26.2 35.2 27.2 35.9 28.1L33.7 30.4C33.3 30.8 33.3 31.4 33.6 31.8L35.6 35.2C35.9 35.6 36.5 35.7 37 35.5L39.7 34.4C40.6 35.1 41.6 35.6 42.6 36L43 38.8C43.1 39.3 43.5 39.7 44 39.7H48C48.5 39.7 48.9 39.4 49 38.9L49.4 36.1C50.4 35.7 51.4 35.2 52.3 34.5L55 35.6C55.5 35.8 56.1 35.6 56.3 35.2L58.3 31.8C58.6 31.4 58.5 30.8 58.1 30.4L56 28.2C56.5 27.2 56.9 26.1 57.1 25L60 24.6C60.5 24.5 60.8 24.1 60.8 23.6V19.6C60.8 19.1 60.5 18.7 60 18.6L56.8 18.4ZM45.5 28.7C41.9 28.7 39 25.8 39 22.2C39 18.6 41.9 15.7 45.5 15.7C49.1 15.7 52 18.6 52 22.2C52 25.8 49.1 28.7 45.5 28.7Z" fill="url(#paint2_linear)"/>
</g>
<defs>
<linearGradient id="paint0_linear" x1="21.7" y1="23.7" x2="51.8" y2="59.7" gradientUnits="userSpaceOnUse">
<stop stop-color="#6A5ACD"/>
<stop offset="1" stop-color="#483D8B"/>
</linearGradient>
<linearGradient id="paint1_linear" x1="-7.3" y1="11.7" x2="22.8" y2="47.7" gradientUnits="userSpaceOnUse">
<stop stop-color="#6A5ACD"/>
<stop offset="1" stop-color="#483D8B"/>
</linearGradient>
<linearGradient id="paint2_linear" x1="30.7" y1="3.7" x2="60.8" y2="39.7" gradientUnits="userSpaceOnUse">
<stop stop-color="#6A5ACD"/>
<stop offset="1" stop-color="#483D8B"/>
</linearGradient>
</defs>
</svg>
